<svg version="1.0" xmlns="http://www.w3.org/2000/svg"
        xmlns:xlink="http://www.w3.org/1999/xlink" width="100%" height="100%"
        color-interpolation-filters="sRGB" style="margin: auto;">
        <g fill="#333" class="icon-text-wrapper icon-svg-group iconsvg"
          transform="translate(0,0)">
          <g class="iconsvg-imagesvg" transform="translate(0,0)">
            <g>
                <rect fill="#333" fill-opacity="0" stroke-width="2" x="0" y="0" width="50" height="50" class="image-rect"></rect> 
                <svg x="0" y="0" width="50" height="50" filtersec="colorsb9611900932" class="image-svg-svg primary" style="overflow: visible;">
                    <svg xmlns="http://www.w3.org/2000/svg" viewBox="0 0 64.26000213623047 63.9090576171875">
                        <path
                            d="M2 0c4.89 0 10.26 0 15.63.1a3.81 3.81 0 0 1 2.22 1.27q14.22 14.12 28.37 28.31c.77.77 1.57 1.52 2.85 2.77a31.67 31.67 0 0 0 .45-3.27V2.97c0-2.94 0-2.95 3-2.95h7.84c1.3 0 1.9.41 1.9 1.8v60.75zM.78 14.12c3.69 3.76 7.4 7.49 11 11.31a3.26 3.26 0 0 1 .52 2.07c0 11.41 0 22.82.06 34.24 0 1.69-.62 2.22-2.24 2.16-2.53-.09-5.07-.13-7.6 0C.56 64 0 63.28 0 61.34c.07-13.27 0-26.55 0-39.82v-7.07z"
                            fill="#2b3c85"></path>
                        <path d="M49.76 63.88H24.58c-1.13 0-2.07 0-2.06-1.61V36.61z"
                            fill="#f2a833"></path>
                    </svg>
                </svg>
            </g>
          </g>
          <g transform="translate(67,14.548198699951172)">
              <g data-gra="path-name" fill-rule="" class="tp-name iconsvg-namesvg" transform="translate(0,0)">
                <g transform="scale(1)">
                    <g>
                        <path
                            d="M15.29-16.05L15.29 0 12.08 0 4.8-11 4.8 0 1.58 0 1.58-16.05 4.8-16.05 12.08-5.03 12.08-16.05 15.29-16.05ZM25.9 0.16Q23.65 0.16 21.77-0.9 19.89-1.95 18.78-3.82 17.68-5.69 17.68-8.06L17.68-8.06Q17.68-10.4 18.78-12.27 19.89-14.14 21.77-15.2 23.65-16.26 25.9-16.26L25.9-16.26Q28.17-16.26 30.05-15.2 31.92-14.14 33.01-12.27 34.1-10.4 34.1-8.06L34.1-8.06Q34.1-5.69 33.01-3.82 31.92-1.95 30.03-0.9 28.15 0.16 25.9 0.16L25.9 0.16ZM25.9-2.71Q27.35-2.71 28.45-3.36 29.55-4.02 30.17-5.24 30.79-6.45 30.79-8.06L30.79-8.06Q30.79-9.67 30.17-10.87 29.55-12.08 28.45-12.72 27.35-13.36 25.9-13.36L25.9-13.36Q24.45-13.36 23.34-12.72 22.23-12.08 21.61-10.87 20.99-9.67 20.99-8.06L20.99-8.06Q20.99-6.45 21.61-5.24 22.23-4.02 23.34-3.36 24.45-2.71 25.9-2.71L25.9-2.71ZM35.64-16.03L47.39-16.03 47.39-13.43 43.12-13.43 43.12 0 39.91 0 39.91-13.43 35.64-13.43 35.64-16.03ZM59.04-13.43L52.95-13.43 52.95-9.41 58.35-9.41 58.35-6.87 52.95-6.87 52.95-2.62 59.04-2.62 59.04 0 49.74 0 49.74-16.05 59.04-16.05 59.04-13.43ZM67.49 0.16Q65.81 0.16 64.47-0.41 63.12-0.99 62.34-2.07 61.56-3.15 61.54-4.62L61.54-4.62 64.98-4.62Q65.05-3.63 65.68-3.05 66.31-2.48 67.42-2.48L67.42-2.48Q68.54-2.48 69.18-3.02 69.83-3.56 69.83-4.43L69.83-4.43Q69.83-5.14 69.39-5.6 68.96-6.06 68.3-6.33 67.65-6.59 66.5-6.91L66.5-6.91Q64.94-7.37 63.96-7.82 62.99-8.27 62.28-9.17 61.58-10.08 61.58-11.6L61.58-11.6Q61.58-13.02 62.3-14.08 63.01-15.13 64.29-15.69 65.58-16.26 67.23-16.26L67.23-16.26Q69.71-16.26 71.26-15.05 72.81-13.85 72.97-11.69L72.97-11.69 69.44-11.69Q69.39-12.51 68.74-13.05 68.08-13.59 67-13.59L67-13.59Q66.06-13.59 65.5-13.11 64.94-12.63 64.94-11.71L64.94-11.71Q64.94-11.07 65.36-10.64 65.79-10.22 66.42-9.95 67.05-9.69 68.2-9.35L68.2-9.35Q69.76-8.89 70.75-8.43 71.73-7.97 72.45-7.05 73.16-6.13 73.16-4.64L73.16-4.64Q73.16-3.35 72.49-2.25 71.83-1.15 70.54-0.49 69.25 0.16 67.49 0.16L67.49 0.16ZM92.28 0L91.23-3.05 84.85-3.05 83.79 0 80.41 0 86.18-16.05 89.92-16.05 95.68 0 92.28 0ZM85.72-5.63L90.36-5.63 88.04-12.33 85.72-5.63ZM109.83 0L106.11 0 102.57-6.25 101.06-6.25 101.06 0 97.84 0 97.84-16.03 103.86-16.03Q105.72-16.03 107.03-15.37 108.34-14.72 108.99-13.61 109.64-12.49 109.64-11.11L109.64-11.11Q109.64-9.53 108.73-8.25 107.81-6.98 105.99-6.5L105.99-6.5 109.83 0ZM101.06-13.36L101.06-8.66 103.74-8.66Q105.05-8.66 105.69-9.29 106.34-9.92 106.34-11.04L106.34-11.04Q106.34-12.15 105.69-12.76 105.05-13.36 103.74-13.36L103.74-13.36 101.06-13.36ZM111.78-8.04Q111.78-10.4 112.85-12.27 113.92-14.14 115.76-15.19 117.61-16.23 119.91-16.23L119.91-16.23Q122.59-16.23 124.62-14.86 126.64-13.48 127.44-11.04L127.44-11.04 123.74-11.04Q123.19-12.19 122.19-12.77 121.19-13.34 119.89-13.34L119.89-13.34Q118.48-13.34 117.39-12.69 116.3-12.03 115.69-10.84 115.09-9.64 115.09-8.04L115.09-8.04Q115.09-6.45 115.69-5.25 116.3-4.04 117.39-3.39 118.48-2.73 119.89-2.73L119.89-2.73Q121.19-2.73 122.19-3.32 123.19-3.9 123.74-5.05L123.74-5.05 127.44-5.05Q126.64-2.59 124.63-1.23 122.62 0.14 119.91 0.14L119.91 0.14Q117.61 0.14 115.76-0.91 113.92-1.95 112.85-3.81 111.78-5.67 111.78-8.04L111.78-8.04ZM140.28-16.03L143.49-16.03 143.49 0 140.28 0 140.28-6.82 133.41-6.82 133.41 0 130.2 0 130.2-16.03 133.41-16.03 133.41-9.44 140.28-9.44 140.28-16.03ZM146.66-16.03L149.87-16.03 149.87 0 146.66 0 146.66-16.03ZM164.02-16.03L167.44-16.03 161.56 0 157.66 0 151.78-16.03 155.22-16.03 159.63-3.28 164.02-16.03ZM178.67-13.43L172.58-13.43 172.58-9.41 177.98-9.41 177.98-6.87 172.58-6.87 172.58-2.62 178.67-2.62 178.67 0 169.37 0 169.37-16.05 178.67-16.05 178.67-13.43Z"
                            transform="translate(-1.5799999237060547, 16.260000228881836)">
                        </path>
                    </g>
                </g>
              </g>
              <g data-gra="path-slogan" fill="#333" transform="translate(5,22.420000076293945)">
                <rect x="0" height="1" y="3.580000400543213" width="11.479995727539062"></rect>
                <rect height="1" y="3.580000400543213" width="11.479995727539062" x="155.61000061035156"></rect>
                <g transform="translate(14.479995727539062,0)">
                    <g transform="scale(1)">
                   <path
                        d="M1.08-7.87L1.08 0L2.03 0L2.03-4.12C2.03-4.53 2.01-4.95 1.99-5.36C1.96-5.77 1.93-6.18 1.90-6.58L1.94-6.58L2.80-4.96L5.65 0L6.68 0L6.68-7.87L5.74-7.87L5.74-3.80C5.74-3.39 5.75-2.97 5.78-2.54C5.81-2.11 5.83-1.70 5.86-1.30L5.81-1.30L4.96-2.93L2.11-7.87ZM11.75 0.14C12.24 0.14 12.70 0.05 13.11-0.14C13.52-0.34 13.88-0.61 14.18-0.97C14.48-1.32 14.71-1.75 14.87-2.26C15.04-2.77 15.12-3.34 15.12-3.97C15.12-4.60 15.04-5.16 14.87-5.66C14.71-6.16 14.48-6.58 14.18-6.93C13.88-7.28 13.52-7.55 13.11-7.73C12.70-7.92 12.24-8.02 11.75-8.02C11.25-8.02 10.80-7.92 10.39-7.74C9.97-7.56 9.62-7.29 9.32-6.94C9.03-6.59 8.80-6.17 8.63-5.67C8.47-5.17 8.39-4.60 8.39-3.97C8.39-3.34 8.47-2.77 8.63-2.26C8.80-1.75 9.03-1.32 9.32-0.97C9.62-0.61 9.97-0.34 10.39-0.14C10.80 0.05 11.25 0.14 11.75 0.14ZM11.75-0.73C11.40-0.73 11.08-0.81 10.79-0.96C10.51-1.11 10.27-1.33 10.06-1.61C9.86-1.90 9.70-2.24 9.59-2.63C9.48-3.03 9.42-3.48 9.42-3.97C9.42-4.46 9.48-4.90 9.59-5.29C9.70-5.68 9.86-6.02 10.06-6.29C10.27-6.56 10.51-6.77 10.79-6.92C11.08-7.07 11.40-7.14 11.75-7.14C12.10-7.14 12.42-7.07 12.70-6.92C12.99-6.77 13.23-6.56 13.43-6.29C13.64-6.02 13.80-5.68 13.91-5.29C14.02-4.90 14.08-4.46 14.08-3.97C14.08-3.48 14.02-3.03 13.91-2.63C13.80-2.24 13.64-1.90 13.43-1.61C13.23-1.33 12.99-1.11 12.70-0.96C12.42-0.81 12.10-0.73 11.75-0.73ZM18.20-7.03L18.20 0L19.21 0L19.21-7.03L21.59-7.03L21.59-7.87L15.83-7.87L15.83-7.03ZM23.00-7.87L23.00 0L27.66 0L27.66-0.85L24-0.85L24-3.71L26.99-3.71L26.99-4.56L24-4.56L24-7.03L27.54-7.03L27.54-7.87ZM29.35-1.72L28.75-1.02C29.10-0.66 29.50-0.38 29.98-0.17C30.45 0.04 30.96 0.14 31.51 0.14C31.93 0.14 32.30 0.09 32.63-0.03C32.96-0.15 33.24-0.31 33.47-0.51C33.70-0.71 33.88-0.95 34.00-1.22C34.13-1.50 34.19-1.79 34.19-2.10C34.19-2.39 34.15-2.64 34.06-2.86C33.98-3.08 33.86-3.27 33.72-3.44C33.58-3.60 33.40-3.75 33.20-3.87C33.00-3.99 32.79-4.10 32.57-4.20L31.45-4.68C31.29-4.74 31.14-4.81 30.98-4.89C30.83-4.97 30.69-5.05 30.56-5.15C30.44-5.25 30.33-5.37 30.26-5.50C30.18-5.63 30.14-5.80 30.14-5.99C30.14-6.35 30.28-6.63 30.55-6.83C30.81-7.04 31.17-7.14 31.61-7.14C31.98-7.14 32.31-7.07 32.60-6.94C32.89-6.81 33.16-6.63 33.40-6.40L33.94-7.04C33.66-7.33 33.32-7.57 32.92-7.75C32.52-7.93 32.08-8.02 31.61-8.02C31.25-8.02 30.92-7.96 30.62-7.86C30.32-7.76 30.06-7.61 29.84-7.42C29.62-7.23 29.45-7.01 29.32-6.76C29.20-6.50 29.14-6.22 29.14-5.93C29.14-5.64 29.18-5.39 29.28-5.17C29.38-4.95 29.50-4.76 29.65-4.60C29.80-4.44 29.98-4.30 30.17-4.19C30.36-4.08 30.55-3.98 30.73-3.90L31.86-3.41C32.04-3.32 32.22-3.24 32.38-3.16C32.54-3.08 32.67-2.99 32.79-2.89C32.91-2.79 33.00-2.67 33.07-2.53C33.13-2.39 33.17-2.22 33.17-2.02C33.17-1.63 33.02-1.32 32.74-1.09C32.45-0.85 32.04-0.73 31.52-0.73C31.12-0.73 30.72-0.82 30.34-1.00C29.96-1.18 29.63-1.42 29.35-1.72ZM38.18-1.72L37.58-1.02C37.93-0.66 38.34-0.38 38.81-0.17C39.28 0.04 39.79 0.14 40.34 0.14C40.76 0.14 41.13 0.09 41.46-0.03C41.79-0.15 42.07-0.31 42.30-0.51C42.53-0.71 42.71-0.95 42.83-1.22C42.96-1.50 43.02-1.79 43.02-2.10C43.02-2.39 42.98-2.64 42.89-2.86C42.81-3.08 42.70-3.27 42.55-3.44C42.41-3.60 42.24-3.75 42.04-3.87C41.84-3.99 41.62-4.10 41.40-4.20L40.28-4.68C40.12-4.74 39.97-4.81 39.82-4.89C39.66-4.97 39.52-5.05 39.40-5.15C39.27-5.25 39.17-5.37 39.09-5.50C39.01-5.63 38.98-5.80 38.98-5.99C38.98-6.35 39.11-6.63 39.38-6.83C39.65-7.04 40.00-7.14 40.44-7.14C40.81-7.14 41.14-7.07 41.43-6.94C41.72-6.81 41.99-6.63 42.23-6.40L42.77-7.04C42.49-7.33 42.15-7.57 41.75-7.75C41.35-7.93 40.91-8.02 40.44-8.02C40.08-8.02 39.75-7.96 39.45-7.86C39.15-7.76 38.89-7.61 38.67-7.42C38.45-7.23 38.28-7.01 38.15-6.76C38.03-6.50 37.97-6.22 37.97-5.93C37.97-5.64 38.02-5.39 38.11-5.17C38.21-4.95 38.33-4.76 38.48-4.60C38.64-4.44 38.81-4.30 39-4.19C39.19-4.08 39.38-3.98 39.56-3.90L40.69-3.41C40.88-3.32 41.05-3.24 41.21-3.16C41.37-3.08 41.51-2.99 41.62-2.89C41.74-2.79 41.83-2.67 41.90-2.53C41.97-2.39 42-2.22 42-2.02C42-1.63 41.86-1.32 41.57-1.09C41.28-0.85 40.88-0.73 40.36-0.73C39.95-0.73 39.55-0.82 39.17-1.00C38.79-1.18 38.46-1.42 38.18-1.72ZM44.57-7.87L44.57 0L45.56 0L45.56-3.71L49.22-3.71L49.22 0L50.23 0L50.23-7.87L49.22-7.87L49.22-4.57L45.56-4.57L45.56-7.87ZM55.74-3.20L53.38-3.20L53.75-4.40C53.89-4.84 54.03-5.28 54.16-5.72C54.28-6.15 54.41-6.60 54.53-7.06L54.58-7.06C54.70-6.60 54.83-6.15 54.96-5.72C55.09-5.28 55.22-4.84 55.37-4.40ZM55.99-2.40L56.74 0L57.80 0L55.14-7.87L54.01-7.87L51.35 0L52.37 0L53.12-2.40ZM59.92-4.14L59.92-7.07L61.24-7.07C61.85-7.07 62.32-6.96 62.65-6.76C62.98-6.55 63.14-6.18 63.14-5.66C63.14-5.15 62.98-4.77 62.65-4.52C62.32-4.27 61.85-4.14 61.24-4.14ZM63.24 0L64.37 0L62.38-3.43C62.91-3.57 63.34-3.82 63.66-4.19C63.98-4.56 64.14-5.05 64.14-5.66C64.14-6.07 64.07-6.42 63.94-6.70C63.80-6.98 63.61-7.20 63.37-7.38C63.12-7.56 62.83-7.68 62.49-7.76C62.15-7.83 61.78-7.87 61.38-7.87L58.92-7.87L58.92 0L59.92 0L59.92-3.32L61.34-3.32ZM65.89-7.87L65.89 0L66.89 0L66.89-7.87ZM69.05-7.87L69.05 0L70.00 0L70.00-4.12C70.00-4.53 69.98-4.95 69.95-5.36C69.93-5.77 69.90-6.18 69.86-6.58L69.91-6.58L70.76-4.96L73.62 0L74.65 0L74.65-7.87L73.70-7.87L73.70-3.80C73.70-3.39 73.72-2.97 73.75-2.54C73.77-2.11 73.80-1.70 73.82-1.30L73.78-1.30L72.92-2.93L70.08-7.87ZM76.36-3.94C76.36-3.30 76.44-2.72 76.62-2.21C76.80-1.71 77.04-1.28 77.35-0.93C77.66-0.58 78.04-0.32 78.47-0.13C78.90 0.05 79.38 0.14 79.90 0.14C80.42 0.14 80.90 0.06 81.32-0.11C81.74-0.29 82.08-0.50 82.33-0.77L82.33-4.08L79.75-4.08L79.75-3.25L81.42-3.25L81.42-1.20C81.26-1.06 81.05-0.94 80.80-0.86C80.55-0.77 80.28-0.73 80.00-0.73C79.58-0.73 79.21-0.81 78.88-0.96C78.56-1.11 78.29-1.33 78.07-1.61C77.85-1.89 77.68-2.23 77.56-2.62C77.45-3.02 77.39-3.46 77.39-3.96C77.39-4.45 77.45-4.89 77.57-5.28C77.70-5.67 77.87-6.01 78.10-6.28C78.32-6.56 78.59-6.77 78.91-6.92C79.23-7.07 79.59-7.14 79.99-7.14C80.39-7.14 80.72-7.07 80.98-6.93C81.24-6.79 81.47-6.62 81.67-6.41L82.24-7.04C82.00-7.28 81.71-7.51 81.34-7.71C80.98-7.91 80.52-8.02 79.98-8.02C79.45-8.02 78.97-7.92 78.53-7.73C78.09-7.55 77.71-7.28 77.38-6.92C77.06-6.57 76.81-6.14 76.63-5.64C76.45-5.14 76.36-4.57 76.36-3.94ZM86.64-7.87L86.64 0L87.64 0L87.64-3.12L89.05-3.12C89.48-3.12 89.88-3.17 90.23-3.27C90.59-3.37 90.90-3.52 91.15-3.72C91.41-3.92 91.61-4.17 91.75-4.48C91.89-4.78 91.96-5.14 91.96-5.56C91.96-5.99 91.89-6.35 91.75-6.65C91.61-6.94 91.41-7.18 91.16-7.36C90.91-7.54 90.60-7.67 90.24-7.75C89.88-7.83 89.48-7.87 89.05-7.87ZM88.93-3.94L87.64-3.94L87.64-7.07L88.93-7.07C89.61-7.07 90.12-6.96 90.46-6.74C90.79-6.52 90.96-6.12 90.96-5.56C90.96-5.00 90.79-4.59 90.46-4.33C90.13-4.07 89.62-3.94 88.93-3.94ZM93.55-7.87L93.55 0L97.99 0L97.99-0.85L94.55-0.85L94.55-7.87ZM102.77-3.20L100.40-3.20L100.78-4.40C100.92-4.84 101.06-5.28 101.18-5.72C101.31-6.15 101.44-6.60 101.56-7.06L101.60-7.06C101.73-6.60 101.86-6.15 101.99-5.72C102.12-5.28 102.25-4.84 102.40-4.40ZM103.02-2.40L103.76 0L104.83 0L102.17-7.87L101.04-7.87L98.38 0L99.40 0L100.15-2.40ZM107.10-7.03L107.10 0L108.11 0L108.11-7.03L110.48-7.03L110.48-7.87L104.72-7.87L104.72-7.03ZM111.90-7.87L111.90 0L112.90 0L112.90-3.53L115.90-3.53L115.90-4.37L112.90-4.37L112.90-7.03L116.44-7.03L116.44-7.87ZM120.61 0.14C121.11 0.14 121.56 0.05 121.97-0.14C122.39-0.34 122.74-0.61 123.04-0.97C123.34-1.32 123.57-1.75 123.74-2.26C123.90-2.77 123.98-3.34 123.98-3.97C123.98-4.60 123.90-5.16 123.74-5.66C123.57-6.16 123.34-6.58 123.04-6.93C122.74-7.28 122.39-7.55 121.97-7.73C121.56-7.92 121.11-8.02 120.61-8.02C120.12-8.02 119.66-7.92 119.25-7.74C118.84-7.56 118.48-7.29 118.19-6.94C117.89-6.59 117.66-6.17 117.50-5.67C117.33-5.17 117.25-4.60 117.25-3.97C117.25-3.34 117.33-2.77 117.50-2.26C117.66-1.75 117.89-1.32 118.19-0.97C118.48-0.61 118.84-0.34 119.25-0.14C119.66 0.05 120.12 0.14 120.61 0.14ZM120.61-0.73C120.26-0.73 119.94-0.81 119.66-0.96C119.37-1.11 119.13-1.33 118.93-1.61C118.72-1.90 118.56-2.24 118.45-2.63C118.34-3.03 118.28-3.48 118.28-3.97C118.28-4.46 118.34-4.90 118.45-5.29C118.56-5.68 118.72-6.02 118.93-6.29C119.13-6.56 119.37-6.77 119.66-6.92C119.94-7.07 120.26-7.14 120.61-7.14C120.96-7.14 121.28-7.07 121.57-6.92C121.85-6.77 122.09-6.56 122.30-6.29C122.50-6.02 122.66-5.68 122.77-5.29C122.88-4.90 122.94-4.46 122.94-3.97C122.94-3.48 122.88-3.03 122.77-2.63C122.66-2.24 122.50-1.90 122.30-1.61C122.09-1.33 121.85-1.11 121.57-0.96C121.28-0.81 120.96-0.73 120.61-0.73ZM126.67-4.14L126.67-7.07L127.99-7.07C128.61-7.07 129.08-6.96 129.41-6.76C129.74-6.55 129.90-6.18 129.90-5.66C129.90-5.15 129.74-4.77 129.41-4.52C129.08-4.27 128.61-4.14 127.99-4.14ZM130.00 0L131.12 0L129.13-3.43C129.67-3.57 130.10-3.82 130.42-4.19C130.74-4.56 130.90-5.05 130.90-5.66C130.90-6.07 130.83-6.42 130.69-6.70C130.56-6.98 130.37-7.20 130.12-7.38C129.88-7.56 129.59-7.68 129.25-7.76C128.91-7.83 128.54-7.87 128.14-7.87L125.68-7.87L125.68 0L126.67 0L126.67-3.32L128.10-3.32ZM132.65-7.87L132.65 0L133.57 0L133.57-4.33C133.57-4.68 133.56-5.07 133.52-5.50C133.49-5.92 133.46-6.31 133.44-6.66L133.49-6.66L134.11-4.91L135.64-0.79L136.20-0.79L137.71-4.91L138.35-6.66L138.40-6.66C138.36-6.31 138.33-5.92 138.31-5.50C138.28-5.07 138.26-4.68 138.26-4.33L138.26 0L139.21 0L139.21-7.87L138.04-7.87L136.52-3.65L135.97-2.04L135.92-2.04L135.35-3.65L133.82-7.87Z"
                        transform="translate(-1.08, 8.016)"></path>
                    </g>
                </g>
              </g>
          </g>
        </g>
    </svg>